<?xml version="1.0" encoding="iso-8859-1"?>
<!-- Generator: Adobe Illustrator 19.0.0, SVG Export Plug-In . SVG Version: 6.00 Build 0)  -->
<svg version="1.1" id="Layer_1" xmlns="http://www.w3.org/2000/svg" xmlns:xlink="http://www.w3.org/1999/xlink" x="0px" y="0px"
	 viewBox="0 0 512.001 512.001" style="enable-background:new 0 0 512.001 512.001;" xml:space="preserve">
<rect x="273.121" y="89.856" transform="matrix(-0.866 -0.5 0.5 -0.866 434.9755 672.9933)" style="fill:#FFC107;" width="69.066" height="376.726"/>
<rect x="381.422" y="62.366" transform="matrix(-0.866 -0.5 0.5 -0.866 730.8682 377.0873)" style="fill:#9E9E9E;" width="69.066" height="56.514"/>
<path style="fill:#B71C1C;" d="M460.005,83.42l-59.814-34.533l13.356-23.135c8.228-14.251,26.452-19.135,40.703-10.907l8.205,4.737
	c14.251,8.228,19.135,26.452,10.907,40.703L460.005,83.42z"/>
<polygon style="fill:#FFE1C2;" points="243.383,458.618 178.943,501.166 183.57,424.084 "/>
<g>
	<path style="fill:#231F20;" d="M486.804,34.87c-2.81-10.483-9.533-19.245-18.931-24.671l-8.206-4.738
		c-9.397-5.426-20.348-6.867-30.831-4.059c-10.484,2.81-19.246,9.533-24.672,18.932L174.185,418.667
		c-0.832,1.442-1.301,3.041-1.414,4.672c-0.003,0.035-0.016,0.062-0.018,0.098l-4.014,66.894H94.584
		c-5.983,0-10.835,4.852-10.835,10.835c0,5.983,4.852,10.835,10.835,10.835c0,0,85.393-0.033,85.656-0.093
		c1.639-0.198,3.243-0.755,4.673-1.7l64.441-42.548c0.035-0.023,0.053-0.056,0.086-0.08c1.322-0.892,2.478-2.071,3.329-3.544
		L482.746,65.702C488.172,56.303,489.614,45.354,486.804,34.87z M427.784,117.558l-41.047-23.698l17.419-30.172l41.047,23.698
		L427.784,117.558z M434.444,22.334c4.896-1.311,10.002-0.638,14.387,1.894l8.206,4.738c4.387,2.532,7.524,6.621,8.835,11.513
		c1.311,4.893,0.638,10.002-1.894,14.388l-7.94,13.751L414.991,44.92l7.939-13.751C425.463,26.782,429.552,23.645,434.444,22.334z
		 M191.058,480.183l2.278-37.95l29.45,17.002L191.058,480.183z M239.418,443.817l-41.049-23.698l177.532-307.493l41.047,23.698
		L239.418,443.817z"/>
	<path style="fill:#231F20;" d="M41.853,490.331h-7.224c-5.983,0-10.835,4.852-10.835,10.835c0,5.983,4.852,10.835,10.835,10.835
		h7.224c5.983,0,10.835-4.852,10.835-10.835C52.688,495.183,47.836,490.331,41.853,490.331z"/>
</g>
<g>
</g>
<g>
</g>
<g>
</g>
<g>
</g>
<g>
</g>
<g>
</g>
<g>
</g>
<g>
</g>
<g>
</g>
<g>
</g>
<g>
</g>
<g>
</g>
<g>
</g>
<g>
</g>
<g>
</g>
</svg>
