<?xml version="1.0" encoding="iso-8859-1"?>
<!-- Generator: Adobe Illustrator 19.0.0, SVG Export Plug-In . SVG Version: 6.00 Build 0)  -->
<svg version="1.1" id="Layer_1" xmlns="http://www.w3.org/2000/svg" xmlns:xlink="http://www.w3.org/1999/xlink" x="0px" y="0px"
	 viewBox="0 0 504.4 504.4" style="enable-background:new 0 0 504.4 504.4;" xml:space="preserve">
<path style="fill:#FFC52F;" d="M192.8,451.4L10.4,269c-4.8-4.8-6.8-10.8-6.8-16.8c0-6,2.4-12,6.8-16.8L192.8,53
	c9.2-9.2,24.4-9.2,33.6,0l16.4,16.4c9.2,9.2,9.2,24.4,0,33.6L129.6,216.2h347.6c13.2,0,23.2,10.4,23.2,23.6v23.6
	c0,13.2-10,24.8-23.2,24.8H128.4l114.4,113.6c9.2,9.2,9.2,24,0,33.2l-16.4,16.4C217.2,460.6,202,460.6,192.8,451.4z"/>
<path style="fill:#F0C960;" d="M434.8,236.2H82.4l0.8-0.8L224.4,93.8c4-4,4-10.4,0-14.4l-7.6-7.6c-4-4-10.4-4-14.4,0L29.2,245
	c-2,2-3.2,4.8-2.8,7.6c0,2.8,0.8,5.6,2.8,7.6l142,142l20,20l11.2,11.2c4,4,10.4,4,14.4,0l7.6-7.6c4-4,4-10.4,0-14.4L83.2,270.6
	l-2-1.6h389.6c5.6,0,13.6-5.6,13.6-11.2V247c0-5.6-8-10-13.6-10H462h-27.2V236.2z"/>
<path d="M210,462.2c-7.2,0-14.4-2.8-19.6-8l0,0L8,271.8c-5.2-5.2-8-12-8-19.6c0-7.6,2.8-14.4,8-19.6L190.4,50.2c5.2-5.2,12-8,19.6-8
	s14.4,2.8,19.6,8L246,66.6c5.2,5.2,8,12,8,19.6s-2.8,14.4-8,19.6L139.6,212.2h337.6c15.2,0,27.2,12,27.2,27.6v23.6
	c0,15.6-12.4,28.8-27.2,28.8H138.4L246,399c5.2,5.2,8,12,8,19.6c0,7.2-2.8,14.4-8,19.6l-16.4,16.4C224,459.4,216.8,462.2,210,462.2z
	 M195.6,448.2c7.6,7.6,20.4,7.6,28,0l16.4-16.4c3.6-3.6,5.6-8.4,5.6-13.6s-2-10-5.6-13.6L125.6,291c-1.2-1.2-1.6-2.8-0.8-4.4
	s2-2.4,3.6-2.4h348.8c10.4,0,19.2-9.6,19.2-20.8v-23.6c0-10.8-8.4-19.6-19.2-19.6H129.6c-1.6,0-3.2-0.8-3.6-2.4s-0.4-3.2,0.8-4.4
	L240,100.2c3.6-3.6,5.6-8.8,5.6-14s-2-10.4-5.6-14l-16.4-16.4c-3.6-3.6-8.8-5.6-14-5.6s-10.4,2-14,5.6L13.2,238.2
	c-3.6,3.6-5.6,8.8-5.6,14c0,5.2,2,10.4,5.6,14L195.6,448.2L195.6,448.2z"/>
<path d="M209.6,439.8L209.6,439.8c-4,0-7.6-1.6-10-4L26.4,262.6c-2.8-2.8-4.4-6.4-4-10.4c0-3.6,1.6-7.6,4-10.4L199.6,68.6
	c5.6-5.6,14.8-5.6,20.4,0l7.6,7.6c2.8,2.8,4,6.4,4,10c0,4-1.6,7.6-4,10L92,231.8h344.4c2.4,0,4,1.6,4,4s-1.6,4-4,4h-354
	c-1.6,0-2.8-0.8-3.6-2.4c-0.8-1.2-0.4-3.2,0.4-4.4l0.8-0.8c0,0,0-0.4,0.4-0.4L221.6,90.2c1.2-1.2,2-2.8,2-4.4s-0.8-3.2-2-4.4
	l-7.6-7.6c-2.4-2.4-6.4-2.4-8.8,0L32,247c-1.2,1.2-2,2.8-2,4.4c0,2,0.8,3.6,2,4.8l173.2,173.2c1.2,1.2,2.8,2,4.4,2l0,0
	c1.6,0,3.2-0.8,4.4-2l7.6-7.6c1.2-1.2,2-2.8,2-4.4s-0.8-3.2-2-4.4L80.4,272.2l-1.6-1.2c-1.2-1.2-2-2.8-1.2-4.4s2-2.8,3.6-2.8h393.2
	c3.2,0,6-4,6-7.2v-10.8c0-3.6-2.4-6-6-6h-10c-2.4,0-4-1.6-4-4s1.6-4,4-4h10c8,0,14,6,14,14v10.8c0,7.2-5.6,15.2-14,15.2H91.2
	l136,135.6c2.8,2.8,4,6.4,4,10s-1.6,7.2-4,10l-7.6,7.6C217.2,438.2,213.6,439.8,209.6,439.8z"/>
<g>
</g>
<g>
</g>
<g>
</g>
<g>
</g>
<g>
</g>
<g>
</g>
<g>
</g>
<g>
</g>
<g>
</g>
<g>
</g>
<g>
</g>
<g>
</g>
<g>
</g>
<g>
</g>
<g>
</g>
</svg>
