<?xml version="1.0" encoding="iso-8859-1"?>
<!-- Generator: Adobe Illustrator 19.0.0, SVG Export Plug-In . SVG Version: 6.00 Build 0)  -->
<svg version="1.1" id="Layer_1" xmlns="http://www.w3.org/2000/svg" xmlns:xlink="http://www.w3.org/1999/xlink" x="0px" y="0px"
	 viewBox="0 0 297 297" style="enable-background:new 0 0 297 297;" xml:space="preserve">
<g>
	<g id="XMLID_41_">
		<g>
			<rect x="20.23" y="58.5" style="fill:#FFCD02;" width="256.55" height="23.16"/>
			<rect x="20.23" y="136.92" style="fill:#FFA800;" width="256.55" height="23.16"/>
			<rect x="20.23" y="215.34" style="fill:#E67E22;" width="256.55" height="23.16"/>
			<path d="M297,215.04v23.76c0,10.99-8.94,19.92-19.92,19.92H19.93C8.94,258.72,0,249.79,0,238.8v-23.76
				c0-10.98,8.94-19.92,19.93-19.92h257.15C288.06,195.12,297,204.06,297,215.04z M276.78,238.5v-23.16H20.23v23.16H276.78z"/>
			<path d="M297,136.62v23.76c0,10.99-8.94,19.92-19.92,19.92H19.93C8.94,180.3,0,171.37,0,160.38v-23.76
				c0-10.99,8.94-19.92,19.93-19.92h257.15C288.06,116.7,297,125.63,297,136.62z M276.78,160.08v-23.16H20.23v23.16H276.78z"/>
			<path d="M297,58.2v23.76c0,10.98-8.94,19.92-19.92,19.92H19.93C8.94,101.88,0,92.94,0,81.96V58.2c0-10.99,8.94-19.92,19.93-19.92
				h257.15C288.06,38.28,297,47.21,297,58.2z M276.78,81.66V58.5H20.23v23.16H276.78z"/>
		</g>
	</g>
</g>
<g>
</g>
<g>
</g>
<g>
</g>
<g>
</g>
<g>
</g>
<g>
</g>
<g>
</g>
<g>
</g>
<g>
</g>
<g>
</g>
<g>
</g>
<g>
</g>
<g>
</g>
<g>
</g>
<g>
</g>
</svg>
