<?xml version="1.0" encoding="iso-8859-1"?>
<!-- Generator: Adobe Illustrator 19.0.0, SVG Export Plug-In . SVG Version: 6.00 Build 0)  -->
<svg version="1.1" id="Layer_1" xmlns="http://www.w3.org/2000/svg" xmlns:xlink="http://www.w3.org/1999/xlink" x="0px" y="0px"
	 viewBox="0 0 512 512" style="enable-background:new 0 0 512 512;" xml:space="preserve">
<g>
	<path style="fill:#F4A026;" d="M466.568,287.585c-14.093-3.963-28.728,4.243-32.694,18.335
		c-22.358,79.456-95.481,134.95-177.824,134.95c-72.351,0-137.579-42.85-167.512-107.149l1.179-0.681l33.635-13.296l-91.676-39.481
		l-18.424,99.222l29.749-18.145C82.581,441.106,164.925,493.88,256.05,493.88c105.982,0,200.089-71.388,228.853-173.603
		C488.867,306.186,480.658,291.549,466.568,287.585z"/>
	<path style="fill:#F4A026;" d="M45.626,224.407c14.105,3.917,28.713-4.347,32.627-18.453
		c22.032-79.403,95.144-134.859,177.797-134.859c72.993,0,138.537,43.257,168.038,108.056l-1.806,1.043l-33.635,13.296
		l91.676,39.481l18.424-99.221l-29.158,17.682c-16.04-32.798-39.607-61.879-68.679-84.238
		c-41.775-32.127-91.867-49.109-144.86-49.109S152.966,35.067,111.19,67.194C70.653,98.368,40.814,142.613,27.172,191.78
		C23.259,205.887,31.522,220.494,45.626,224.407z"/>
</g>
<path d="M470.157,274.828C470.157,274.828,470.155,274.827,470.157,274.828c-21.099-5.933-43.102,6.404-49.04,27.502
	c-20.758,73.768-88.635,125.288-165.067,125.288c-61.688,0-118.802-33.782-149.121-87.129l21.297-8.419
	c4.991-1.972,8.299-6.76,8.38-12.124c0.081-5.366-3.081-10.25-8.009-12.373l-91.676-39.481c-3.703-1.593-7.926-1.418-11.482,0.48
	c-3.556,1.898-6.054,5.31-6.791,9.272L0.223,377.065c-0.954,5.143,1.203,10.365,5.51,13.333c4.307,2.966,9.957,3.125,14.42,0.402
	l17.761-10.833c20.543,36.034,49.781,66.537,85.239,88.782c40.027,25.111,85.982,38.385,132.896,38.385
	c111.893,0,211.245-75.361,241.61-183.265c2.876-10.223,1.6-20.955-3.595-30.217C488.871,284.388,480.378,277.704,470.157,274.828z
	 M472.146,316.688c-27.161,96.525-116.023,163.94-216.096,163.94c-84.477,0-163.443-49.135-201.175-125.179
	c-1.651-3.328-4.624-5.81-8.193-6.841c-1.207-0.349-2.445-0.521-3.678-0.521c-2.412,0-4.803,0.659-6.902,1.939l-4.397,2.681
	l9.973-53.708l46.953,20.221l-3.782,1.495c-0.607,0.24-1.197,0.525-1.763,0.852l-1.179,0.683
	c-5.942,3.436-8.279,10.842-5.382,17.065c32.465,69.743,102.933,114.809,179.525,114.809c88.252,0,166.621-59.467,190.581-144.612
	c1.98-7.033,9.314-11.141,16.348-9.168c3.407,0.96,6.237,3.187,7.969,6.274C472.679,309.705,473.104,313.28,472.146,316.688z"/>
<path d="M506.281,122.85c-4.298-2.969-9.939-3.134-14.406-0.427l-17.113,10.382c-16.608-29.515-39.139-55.619-65.773-76.1
	C364.877,22.781,311.991,4.866,256.05,4.866S147.224,22.828,103.111,56.752c-42.799,32.914-74.303,79.703-88.709,131.618
	c-5.86,21.123,6.556,42.448,27.678,49.074c0,0,0,0,0.003,0c10.234,2.651,20.959,1.392,30.204-3.837
	c9.242-5.228,15.898-13.873,18.737-24.106c20.446-73.687,88.307-125.151,165.027-125.151c62.425,0,119.826,34.159,149.815,88.085
	l-22.091,8.731c-4.99,1.972-8.299,6.759-8.38,12.123c-0.081,5.366,3.081,10.25,8.009,12.373l91.676,39.481
	c1.678,0.722,3.462,1.08,5.243,1.08c2.151,0,4.295-0.522,6.241-1.56c3.556-1.898,6.054-5.31,6.789-9.273l18.424-99.221
	C512.731,131.036,510.578,125.82,506.281,122.85z M470.324,214.236l-46.954-20.221l3.785-1.491c0.607-0.24,1.194-0.52,1.759-0.846
	l1.805-1.034c5.908-3.413,8.259-10.736,5.431-16.946C404.119,103.343,333.425,57.92,256.05,57.92
	c-88.584,0-166.948,59.524-190.566,144.644c-0.946,3.411-3.166,6.412-6.247,8.154c-3.079,1.744-6.654,1.548-10.063,1.548
	c-0.001,0-0.003,0-0.004,0c-7.041-2.651-11.181-9.586-9.226-16.628c12.879-46.416,41.051-88.5,79.326-117.935
	c39.438-30.33,86.736-46.363,136.78-46.363s97.343,16.03,136.78,46.36c27.208,20.923,49.634,48.433,64.853,79.555
	c1.635,3.344,4.603,5.846,8.174,6.894c3.57,1.046,7.42,0.543,10.602-1.385l3.854-2.338L470.324,214.236z"/>
<g>
</g>
<g>
</g>
<g>
</g>
<g>
</g>
<g>
</g>
<g>
</g>
<g>
</g>
<g>
</g>
<g>
</g>
<g>
</g>
<g>
</g>
<g>
</g>
<g>
</g>
<g>
</g>
<g>
</g>
</svg>
