<?xml version="1.0" encoding="iso-8859-1"?>
<!-- Generator: Adobe Illustrator 19.0.0, SVG Export Plug-In . SVG Version: 6.00 Build 0)  -->
<svg version="1.1" id="Layer_1" xmlns="http://www.w3.org/2000/svg" xmlns:xlink="http://www.w3.org/1999/xlink" x="0px" y="0px"
	 viewBox="0 0 512 512" style="enable-background:new 0 0 512 512;" xml:space="preserve">
<path style="fill:#FFCD54;" d="M0,256.006C0,397.402,114.606,512.004,255.996,512C397.394,512.004,512,397.402,512,256.006
	C512.009,114.61,397.394,0,255.996,0C114.606,0,0,114.614,0,256.006z"/>
<path style="fill:#F4BA41;" d="M500.869,330.805c-0.473-0.491-108.622-108.607-109.158-109.158
	c-16.761-18.065-39.958-29.276-65.563-29.276h-81.387c-0.022-0.023-0.029-0.055-0.052-0.079c-0.29-0.29-0.657-0.423-0.98-0.652
	c-0.228-0.323-66.593-66.688-66.916-66.916c-0.228-0.323-0.362-0.691-0.652-0.98c-2.762-2.762-7.235-2.762-9.998,0l-70.7,70.7
	c-2.762,2.762-2.762,7.235,0,9.998c0,0,8.159,8.159,8.16,8.161l163.589,163.589h-4.143c-3.907,0-7.07,3.166-7.07,7.07
	c0,2.377,1.248,4.375,3.045,5.658c0.457,0.641,98.916,99.1,99.557,99.557c0.4,0.562,0.892,1.013,1.431,1.431
	C427.228,459.977,479.149,402.005,500.869,330.805z"/>
<path style="fill:#F4F6F9;" d="M326.147,192.37H117.529l58.63-58.63c2.762-2.762,2.762-7.235,0-9.997
	c-2.762-2.762-7.235-2.762-9.997,0l-70.7,70.7c-2.762,2.762-2.762,7.235,0,9.997l70.7,70.7c1.381,1.381,3.189,2.071,4.998,2.071
	s3.618-0.69,4.998-2.071c2.762-2.762,2.762-7.235,0-9.997l-58.63-58.63h208.619c43.186,0,78.321,38.06,78.321,84.839
	s-35.136,84.84-78.321,84.84H263.07c-3.908,0-7.07,3.166-7.07,7.07c0,3.904,3.163,7.07,7.07,7.07h63.077
	c50.981,0,92.462-44.401,92.462-98.979S377.128,192.37,326.147,192.37z"/>
<g>
</g>
<g>
</g>
<g>
</g>
<g>
</g>
<g>
</g>
<g>
</g>
<g>
</g>
<g>
</g>
<g>
</g>
<g>
</g>
<g>
</g>
<g>
</g>
<g>
</g>
<g>
</g>
<g>
</g>
</svg>
