<?xml version="1.0" encoding="iso-8859-1"?>
<!-- Generator: Adobe Illustrator 19.0.0, SVG Export Plug-In . SVG Version: 6.00 Build 0)  -->
<svg version="1.1" id="Layer_1" xmlns="http://www.w3.org/2000/svg" xmlns:xlink="http://www.w3.org/1999/xlink" x="0px" y="0px"
	 viewBox="0 0 504.8 504.8" style="enable-background:new 0 0 504.8 504.8;" xml:space="preserve">
<path style="fill:#FFC52F;" d="M311.6,450.6l182-182c4.8-4.8,6.8-10.8,6.8-16.8s-2.4-12-6.8-16.8l-182-182c-9.2-9.2-24.4-9.2-33.2,0
	L262,69.4c-9.2,9.2-9.2,24,0,33.2l112.8,112.8H28.4C15.6,215.4,4,226.2,4,239v23.2c0,12.8,11.2,25.2,24.4,25.2H376L262,400.6
	c-9.2,9.2-9.2,24,0,33.2l16.4,16.4C287.2,460.2,302.4,459.8,311.6,450.6z"/>
<path style="fill:#F0C960;" d="M44.4,236.2h-10c-5.6,0-14.8,4.4-14.8,10V257c0,5.6,9.2,11.2,14.8,11.2h388.8l-2,1.6L280.4,410.6
	c-4,4-4,10.4,0,14.4l7.6,7.6c4,4,10.4,4,14.4,0l11.2-11.2l20-20l141.6-141.6c2-2,3.2-4.8,2.8-7.6c0-2.8-0.8-5.6-2.8-7.6L302.4,71.8
	c-4-4-10.4-4-14.4,0l-7.6,7.6c-4,4-4,10.4,0,14.4L421.2,235l0.8,0.8H72H44.4V236.2z"/>
<path d="M294.8,461.8c-7.2,0-14.4-2.8-19.2-8l-16.4-16.4c-5.2-5.2-8-12-8-19.2s2.8-14,8-19.2l107.2-106.4h-338
	C13.2,292.6,0,279,0,263.4v-23.2c0-14.8,12.8-27.6,28.4-27.6h336.8l-106-106c-10.8-10.8-10.8-28.4,0-39.2L275.6,51
	c5.2-5.2,12-8,19.6-8s14.4,2.8,19.6,8l182,182c5.2,5.2,8,12,8,19.6s-2.8,14.4-8,19.6l-182,182C309.2,458.6,302.4,461.8,294.8,461.8
	L294.8,461.8z M28,220.2c-11.2,0-20.4,8.8-20.4,19.6V263c0,10.8,9.6,21.2,20.4,21.2h347.6c1.6,0,3.2,0.8,3.6,2.4
	c0.8,1.6,0.4,3.2-0.8,4.4l-114,113.2c-3.6,3.6-5.6,8.4-5.6,13.6s2,10,5.6,13.6l16.4,16.4c3.6,3.6,8.4,5.6,13.6,5.6l0,0
	c5.2,0,10-2,14-6l0,0l182-182c3.6-3.6,5.6-8.8,5.6-14s-2-10.4-5.6-14l-182-182c-3.6-3.6-8.8-5.6-14-5.6s-10,2-14,5.6L264,71.8
	c-7.6,7.6-7.6,20,0,27.6l112.8,112.8c1.2,1.2,1.6,2.8,0.8,4.4s-2,2.4-3.6,2.4H28V220.2z"/>
<path d="M294.8,439.4L294.8,439.4c-4,0-7.2-1.6-10-4l-7.6-7.6c-5.6-5.6-5.6-14.4,0-20l135.6-135.2H30.4c-8,0-14.8-7.2-14.8-15.2
	v-10.8c0-8,8.4-14,16-14h8c2.4,0,4,1.6,4,4s-1.6,4-4,4h-8c-3.6,0-8,2.8-8,6v10.8c0,3.6,3.6,7.2,6.8,7.2h392.4c1.6,0,3.2,1.2,4,2.8
	c0.4,1.6,0,3.6-1.6,4.4l-1.6,1.2L282.8,413.4c-2.4,2.4-2.4,6.4,0,8.8l7.6,7.6c1.2,1.2,2.8,2,4.4,2l0,0c1.6,0,3.2-0.8,4.4-2L472,257
	c1.2-1.2,2-2.8,2-4.4c0-2-0.8-3.6-1.6-4.8L299.6,75c-2.4-2.4-6.4-2.4-8.8,0l-7.6,7.6c-2.4,2.4-2.4,6.4,0,8.8L424,232.6l1.2,1.2
	c0.8,1.2,1.2,2.8,0.4,4.4s-2,2.4-3.6,2.4H67.6c-2.4,0-4-1.6-4-4s1.6-4,4-4h344.8L277.2,97.4c-5.6-5.6-5.6-14.8,0-20l7.6-7.6
	c5.2-5.2,14.8-5.2,20,0l172.8,172.8c2.8,2.8,4.4,6.4,4,10.4c0,3.6-1.2,7.6-4,10L304.8,435.8C302.4,437.8,298.8,439.4,294.8,439.4z"
	/>
<g>
</g>
<g>
</g>
<g>
</g>
<g>
</g>
<g>
</g>
<g>
</g>
<g>
</g>
<g>
</g>
<g>
</g>
<g>
</g>
<g>
</g>
<g>
</g>
<g>
</g>
<g>
</g>
<g>
</g>
</svg>
