<?xml version="1.0" encoding="iso-8859-1"?>
<!-- Generator: Adobe Illustrator 19.0.0, SVG Export Plug-In . SVG Version: 6.00 Build 0)  -->
<svg version="1.1" id="Layer_1" xmlns="http://www.w3.org/2000/svg" xmlns:xlink="http://www.w3.org/1999/xlink" x="0px" y="0px"
	 viewBox="0 0 496 496" style="enable-background:new 0 0 496 496;" xml:space="preserve">
<path style="fill:#FF7F00;" d="M71.2,227.2c29.6-26.4,97.6-44.8,176.8-44.8s147.2,18.4,176.8,44.8c10.4-8.8,16-18.4,16-28.8
	c0-40.8-86.4-73.6-192.8-73.6S55.2,157.6,55.2,198.4C55.2,208.8,60.8,218.4,71.2,227.2z"/>
<path style="fill:#ED7306;" d="M248,145.6c-96.8,0-177.6,27.2-190.4,63.2c2.4,6.4,7.2,12.8,13.6,18.4
	c29.6-26.4,97.6-44.8,176.8-44.8s147.2,18.4,176.8,44.8c6.4-5.6,11.2-12,13.6-18.4C425.6,172.8,344.8,145.6,248,145.6z"/>
<path style="fill:#FFB600;" d="M248,111.2c-136.8,0-248,52-248,128s48.8,145.6,248,145.6s248-69.6,248-145.6S384.8,111.2,248,111.2z
	 M248,268.8c-106.4,0-192.8-28.8-192.8-70.4c0-40.8,86.4-73.6,192.8-73.6s192.8,32.8,192.8,73.6S354.4,268.8,248,268.8z"/>
<g>
	<path style="fill:#FFDA00;" d="M248,275.2c106.4,0,192.8-28.8,192.8-70.4c0-0.8,0-2.4,0-3.2c-4.8,39.2-88.8,67.2-192,67.2
		S60,240.8,56,201.6c0,0.8,0,2.4,0,3.2C55.2,246.4,141.6,275.2,248,275.2z"/>
	<path style="fill:#FFDA00;" d="M248,118.4c136,0,245.6,51.2,248,125.6c0-1.6,0-3.2,0-4.8c0-76-111.2-128-248-128s-248,52-248,128
		c0,1.6,0,3.2,0,4.8C2.4,169.6,112,118.4,248,118.4z"/>
</g>
<path style="fill:#FF9D00;" d="M248,350.4c-100,0-188-20.8-236.8-55.2c24,51.2,88.8,89.6,236.8,89.6s212.8-38.4,236.8-89.6
	C436,329.6,348,350.4,248,350.4z"/>
<g style="opacity:0.2;">
	<path style="fill:#FFFFC7;" d="M178.4,345.6L178.4,345.6c-0.8,0-1.6-0.8-1.6-0.8l-8-15.2l-24,15.2c-0.8,0.8-1.6,0-2.4,0L123.2,324
		L108,339.2c-0.8,0.8-0.8,0.8-1.6,0.8c-0.8,0-0.8-0.8-1.6-0.8l-14.4-32L84,340c0,0.8-0.8,1.6-1.6,1.6c-0.8,0-1.6-0.8-1.6-1.6
		l-22.4-62.4L52,298.4c0,0.8-0.8,0.8-1.6,1.6c-0.8,0-1.6,0-1.6-0.8l-24-21.6c-0.8-0.8-0.8-1.6,0-2.4s1.6-0.8,2.4,0l21.6,19.2
		l7.2-23.2c0-0.8,0.8-1.6,1.6-1.6c0.8,0,1.6,0.8,1.6,1.6l21.6,61.6l6.4-32c0-0.8,0.8-1.6,1.6-1.6c0.8,0,1.6,0,1.6,0.8l15.2,35.2
		l14.4-14.4c0,0,0.8-0.8,1.6-0.8s0.8,0,1.6,0.8l19.2,20.8l24.8-16c0.8,0,0.8,0,1.6,0s0.8,0.8,1.6,0.8l7.2,14.4l13.6-16
		c0,0,0.8-0.8,1.6-0.8l52.8-7.2h0.8l40,12c0.8,0,0.8,0.8,1.6,0.8l3.2,8.8l12-3.2l56-28.8h0.8h16.8c0.8,0,1.6,0,1.6,0.8L388,324
		l10.4-37.6c0-0.8,0.8-1.6,1.6-1.6c0.8,0,1.6,0.8,1.6,1.6c0,0.8,3.2,22.4,3.2,28.8c1.6,0.8,12-3.2,22.4-8.8l5.6-22.4
		c0-0.8,0.8-1.6,1.6-1.6l5.6-0.8l14.4-3.2c0.8,0,0.8,0,1.6,0l4.8,2.4l5.6-27.2c0-0.8,0.8-1.6,2.4-1.6c0.8,0,1.6,1.6,1.6,2.4
		l-5.6,30.4c0,0.8-0.8,0.8-0.8,1.6c-0.8,0-1.6,0-1.6,0l-6.4-4l-13.6,3.2l-4.8,0.8l-5.6,22.4c0,0.8-0.8,0.8-0.8,1.6
		c-6.4,4-22.4,12-27.2,8.8c-0.8-0.8-1.6-1.6-1.6-3.2c0-4-0.8-12.8-2.4-20l-9.6,33.6c0,0.8-0.8,1.6-1.6,1.6c-0.8,0-1.6,0-1.6-0.8
		L376,309.6h-15.2l-56,28.8l-13.6,4c-0.8,0-2.4,0-2.4-1.6l-3.2-9.6L247.2,320l-52,7.2L180,344.8C180,345.6,179.2,345.6,178.4,345.6z
		"/>
</g>
<g>
</g>
<g>
</g>
<g>
</g>
<g>
</g>
<g>
</g>
<g>
</g>
<g>
</g>
<g>
</g>
<g>
</g>
<g>
</g>
<g>
</g>
<g>
</g>
<g>
</g>
<g>
</g>
<g>
</g>
</svg>
