<?xml version="1.0" encoding="iso-8859-1"?>
<!-- Generator: Adobe Illustrator 19.0.0, SVG Export Plug-In . SVG Version: 6.00 Build 0)  -->
<svg version="1.1" id="Layer_1" xmlns="http://www.w3.org/2000/svg" xmlns:xlink="http://www.w3.org/1999/xlink" x="0px" y="0px"
	 viewBox="0 0 512 512" style="enable-background:new 0 0 512 512;" xml:space="preserve">
<circle style="fill:#324A5E;" cx="256" cy="256" r="256"/>
<path style="fill:#2B3B4E;" d="M398.465,285.089l-100.655-6.818l-185.694,33.201L307.434,506.79
	c47.483-9.692,92.751-32.937,129.586-69.772c19.801-19.801,35.664-42.044,47.621-65.753L398.465,285.089z"/>
<path style="fill:#FFD15D;" d="M398.465,285.089L269.99,156.646c-3.718-3.717-8.761-5.806-14.021-5.804
	c-5.258,0-10.3,2.089-14.017,5.81L113.567,285.074c-5.668,5.67-7.363,14.196-4.294,21.604c3.067,7.408,10.297,12.236,18.313,12.238
	l256.86,0.021c0.002,0,0,0,0.002,0c8.018,0,15.248-4.83,18.316-12.24C405.832,299.287,404.135,290.759,398.465,285.089z"/>
<path style="fill:#F9B54C;" d="M398.465,285.089L269.99,156.646c-3.718-3.717-8.761-5.806-14.021-5.804
	c-0.181,0-0.36,0.022-0.541,0.028v168.055l129.021,0.01c0.002,0,0,0,0.002,0c8.018,0,15.248-4.83,18.316-12.24
	C405.832,299.287,404.135,290.759,398.465,285.089z"/>
<g>
</g>
<g>
</g>
<g>
</g>
<g>
</g>
<g>
</g>
<g>
</g>
<g>
</g>
<g>
</g>
<g>
</g>
<g>
</g>
<g>
</g>
<g>
</g>
<g>
</g>
<g>
</g>
<g>
</g>
</svg>
